<svg width="956" height="640" viewBox="0 0 956 640" fill="none" xmlns="http://www.w3.org/2000/svg">
<g id="undraw_success_factors_re_ce93 1">
<g id="Block">
<g id="Main_background_2">
<path id="Vector" d="M703.876 0.398865H0.300415V451H703.876V0.398865Z" fill="#E6E6E6"/>
</g>
<g id="Background_box_1">
<path id="Vector_2" d="M683.758 56.9155H20.419V228.688H683.758V56.9155Z" fill="white"/>
</g>
<g id="Small_line_1">
<path id="Vector_3" d="M325.699 81.7271H185.418V89.7798H325.699V81.7271Z" fill="#E6E6E6"/>
</g>
<g id="Small_line_2">
<path id="Vector_4" d="M402.043 111.101H185.418V119.154H402.043V111.101Z" fill="#C0002A"/>
</g>
<g id="Small_line_3">
<path id="Vector_5" d="M361.963 138.776H185.418V146.828H361.963V138.776Z" fill="#E6E6E6"/>
</g>
<g id="Small_line_4">
<path id="Vector_6" d="M288.482 166.346H185.418V174.398H288.482V166.346Z" fill="#E6E6E6"/>
</g>
<g id="Small_line_5">
<path id="Vector_7" d="M340.968 193.915H185.418V201.968H340.968V193.915Z" fill="#E6E6E6"/>
</g>
<g id="Small_square_1">
<path id="Vector_8" d="M138.658 78.8642H121.48V96.0415H138.658V78.8642Z" fill="#E6E6E6"/>
</g>
<g id="Small_square_2">
<path id="Vector_9" d="M138.658 106.539H121.48V123.716H138.658V106.539Z" fill="#C0002A"/>
</g>
<g id="Small_square_3">
<path id="Vector_10" d="M138.658 134.213H121.48V151.391H138.658V134.213Z" fill="#E6E6E6"/>
</g>
<g id="Small_square_4">
<path id="Vector_11" d="M138.658 161.888H121.48V179.065H138.658V161.888Z" fill="#E6E6E6"/>
</g>
<g id="Small_square_5">
<path id="Vector_12" d="M138.658 189.562H121.48V206.74H138.658V189.562Z" fill="#E6E6E6"/>
</g>
<g id="Main_background_3">
<path id="Vector_13" d="M683.758 252.546H20.419V424.319H683.758V252.546Z" fill="white"/>
</g>
<g id="Small_square_7">
<path id="Vector_14" d="M168.241 267.812H151.064V284.989H168.241V267.812Z" fill="#E6E6E6"/>
</g>
<g id="Small_square_8">
<path id="Vector_15" d="M138.658 267.812H121.48V284.989H138.658V267.812Z" fill="#C0002A"/>
</g>
<g id="Circle">
<g id="Part_4">
<path id="Vector_16" d="M412.724 305.375C407.488 296.512 400.224 289.017 391.528 283.508C382.832 277.999 372.952 274.633 362.702 273.686C352.451 272.739 342.122 274.239 332.564 278.061C323.006 281.884 314.491 287.921 307.721 295.675L303.535 292.018C310.882 283.599 320.124 277.045 330.499 272.894C340.873 268.743 352.085 267.115 363.212 268.143C374.339 269.17 385.063 272.825 394.502 278.805C403.942 284.786 411.826 292.922 417.508 302.544L412.724 305.375Z" fill="#E6E6E6"/>
</g>
<g id="Part_3">
<path id="Vector_17" d="M415.344 377.794L410.73 374.692C417.563 364.501 421.376 352.586 421.729 340.321C422.081 328.057 418.96 315.942 412.724 305.375L417.508 302.544C424.279 314.015 427.668 327.166 427.285 340.481C426.903 353.796 422.763 366.731 415.344 377.794V377.794Z" fill="#530213"/>
</g>
<g id="Part_2">
<path id="Vector_18" d="M356.714 409.052C346.787 409.045 336.973 406.947 327.91 402.896C318.848 398.845 310.74 392.931 304.114 385.539L308.255 381.83C314.864 389.214 323.074 394.99 332.257 398.718C341.439 402.445 351.353 404.025 361.239 403.336C371.125 402.647 380.724 399.709 389.301 394.744C397.879 389.78 405.208 382.921 410.73 374.692L415.344 377.794C408.89 387.418 400.164 395.305 389.939 400.757C379.713 406.208 368.302 409.058 356.714 409.052V409.052Z" fill="#C0002A"/>
</g>
<g id="Part_1">
<path id="Vector_19" d="M304.114 385.539C292.623 372.705 286.221 356.113 286.115 338.888C286.008 321.662 292.204 304.992 303.535 292.018L307.721 295.675C297.283 307.628 291.575 322.985 291.674 338.854C291.772 354.722 297.669 370.007 308.255 381.83L304.114 385.539Z" fill="#C0002A"/>
</g>
</g>
<g id="Big_Squares">
<g id="Big_square_1">
<path id="Vector_20" d="M590.993 117.99H533.736V175.248H590.993V117.99Z" fill="#E6E6E6"/>
</g>
<g id="Big_square_2">
<path id="Vector_21" d="M590.993 305.032H533.736V362.29H590.993V305.032Z" fill="#E6E6E6"/>
</g>
<g id="Big_square_3">
<path id="Vector_22" d="M176.352 342.249H119.095V399.507H176.352V342.249Z" fill="#E6E6E6"/>
</g>
</g>
<g id="Menu">
<g id="Main_line">
<path id="Vector_23" d="M703.576 0H0V29.8905H703.576V0Z" fill="#C0002A"/>
</g>
<g id="Main_line_ball_1">
<path id="Vector_24" d="M22.2122 20.8215C25.2719 20.8215 27.7522 18.3412 27.7522 15.2816C27.7522 12.2219 25.2719 9.74161 22.2122 9.74161C19.1526 9.74161 16.6722 12.2219 16.6722 15.2816C16.6722 18.3412 19.1526 20.8215 22.2122 20.8215Z" fill="white"/>
</g>
<g id="Main_line_ball_2">
<path id="Vector_25" d="M43.2405 20.8215C46.3002 20.8215 48.7805 18.3412 48.7805 15.2816C48.7805 12.2219 46.3002 9.74161 43.2405 9.74161C40.1809 9.74161 37.7006 12.2219 37.7006 15.2816C37.7006 18.3412 40.1809 20.8215 43.2405 20.8215Z" fill="white"/>
</g>
<g id="Main_line_ball_3">
<path id="Vector_26" d="M64.2689 20.8215C67.3285 20.8215 69.8088 18.3412 69.8088 15.2816C69.8088 12.2219 67.3285 9.74161 64.2689 9.74161C61.2092 9.74161 58.7289 12.2219 58.7289 15.2816C58.7289 18.3412 61.2092 20.8215 64.2689 20.8215Z" fill="white"/>
</g>
</g>
</g>
<g id="Person_3">
<path id="Vector_27" d="M817.168 623.704H831.411L838.188 568.764L817.165 568.765L817.168 623.704Z" fill="#FFB8B8"/>
<path id="Vector_28" d="M813.535 619.054L841.585 619.053H841.587C846.327 619.053 850.874 620.937 854.227 624.289C857.579 627.641 859.462 632.188 859.463 636.929V637.51L813.535 637.511L813.535 619.054Z" fill="#2F2E41"/>
<path id="Vector_29" d="M781.694 569.766L792.205 579.379L834.284 543.411L818.771 529.224L781.694 569.766Z" fill="#FFB8B8"/>
<path id="Vector_30" d="M782.152 563.883L802.851 582.813L802.852 582.814C806.35 586.014 808.434 590.472 808.646 595.208C808.857 599.944 807.178 604.571 803.979 608.069L803.587 608.498L769.695 577.503L782.152 563.883Z" fill="#2F2E41"/>
<path id="Vector_31" d="M839.555 430.772L835.518 511.511L845.611 599.316L815.333 603.353L796.158 492.336L790.102 416.642L839.555 430.772Z" fill="#2F2E41"/>
<path id="Vector_32" d="M886.99 401.504C886.99 401.504 899.101 481.234 873.87 507.474C848.638 533.715 814.324 580.14 814.324 580.14L790.102 549.863L851.666 484.262L839.555 439.855L790.102 416.642L798.176 361.134L870.842 360.125L886.99 401.504Z" fill="#2F2E41"/>
<path id="Vector_33" d="M831.415 216.812C845.067 216.812 856.133 205.746 856.133 192.095C856.133 178.444 845.067 167.377 831.415 167.377C817.764 167.377 806.698 178.444 806.698 192.095C806.698 205.746 817.764 216.812 831.415 216.812Z" fill="#FFB8B8"/>
<path id="Vector_34" d="M851.917 227.224L855.703 232.96L865.796 261.219L857.722 371.226L810.287 372.236L804.232 246.08L816.917 230.224L851.917 227.224Z" fill="#CCCCCC"/>
<path id="Vector_35" d="M785.056 249.108L776.982 248.099C776.982 248.099 774.964 249.108 773.954 256.173C772.945 263.237 760.834 325.81 760.834 325.81L776.982 402.513L795.148 378.291L784.047 335.903L795.149 293.515L785.056 249.108Z" fill="#2F2E41"/>
<path id="Vector_36" d="M887.999 248.099H894.054L909.193 329.847L895.064 393.43L880.934 370.217L884.971 344.986L882.953 322.783L875.888 309.662L887.999 248.099Z" fill="#2F2E41"/>
<path id="Vector_37" d="M846.021 192.095L841.527 190.971C841.527 190.971 838.157 171.871 830.292 174.118C822.427 176.365 802.204 178.612 802.204 169.624C802.204 160.636 821.304 152.771 832.539 153.895C843.774 155.018 858.123 158.746 861.751 175.242C867.565 201.686 849.754 208.365 849.754 208.365L850.05 207.402C850.873 204.729 850.932 201.879 850.22 199.174C849.508 196.468 848.054 194.016 846.021 192.095V192.095Z" fill="#2F2E41"/>
<path id="Vector_38" d="M777.991 248.099L810.287 234.978L817.857 229.428L840.565 329.847L855.703 284.431L851.162 226.4L893.045 248.099L878.916 316.727L876.897 342.968L882.953 364.162C882.953 364.162 904.147 379.3 897.082 395.448C890.018 411.596 881.944 412.605 881.944 412.605C881.944 412.605 847.629 380.31 845.611 372.236C843.592 364.162 840.565 350.032 840.565 350.032C840.565 350.032 823.407 414.624 803.223 413.615C783.038 412.605 783.038 391.411 783.038 391.411L788.084 369.208L796.158 345.995L792.121 307.644L777.991 248.099Z" fill="#2F2E41"/>
</g>
</g>
</svg>
