<svg width="229" height="426" viewBox="0 0 229 426" fill="none" xmlns="http://www.w3.org/2000/svg">
<g clip-path="url(#clip0_118_1381)">
<path d="M63.9563 8.21206C49.2372 17.1674 35.7435 37.329 62.731 69.8016C86.9405 98.9325 111.797 117.955 108.121 135.872C104.438 153.79 133.137 198.956 191.534 169.463C249.193 140.347 238.15 84.3566 168.23 63.0834C127.292 50.6265 117.848 -24.5871 63.9563 8.21206Z" fill="url(#paint0_linear_118_1381)"/>
<path d="M17.1198 120.178C17.1198 120.178 39.9595 145.147 62.959 124.867L71.8483 143.681C71.8483 143.681 38.2623 167.421 12.7817 130.071L17.1198 120.178Z" fill="#AF7E69"/>
<path d="M73.5304 73.8173C79.8701 72.0804 98.3336 68.8776 115.891 83.6688C118.867 86.1769 120.085 89.991 119.027 93.562C114.308 109.416 101.865 156.242 112.779 176.508C112.779 176.508 93.5541 195.857 72.5715 180.26C72.5715 180.26 63.157 142.813 50.8353 126.375C42.3266 115.023 64.4052 83.7591 69.9914 76.2002C70.8362 75.0539 72.0844 74.2133 73.5304 73.8173Z" fill="url(#paint1_linear_118_1381)"/>
<path d="M83.356 43.6025C83.356 43.6025 96.1496 66.4737 98.3947 76.9783C98.3947 76.9783 88.7444 82.4877 78.0133 76.4711C78.0133 76.4711 73.5002 52.6204 71.4072 48.5075L83.356 43.6025Z" fill="#AF7E69"/>
<path d="M54.6714 30.7079C54.6714 30.7079 52.2893 69.1553 70.007 69.6972C87.7246 70.2391 89.4447 42.9007 89.4447 42.9007C89.4447 42.9007 84.2161 25.6292 75.7759 23.6145C67.3432 21.5997 54.6714 30.7079 54.6714 30.7079Z" fill="#AF7E69"/>
<path d="M59.8846 18.8415C59.8846 18.8415 51.7869 26.4004 53.1796 31.1039C54.5724 35.8073 71.9323 30.8885 76.2172 28.6653L90.5633 42.602C90.5633 42.602 90.1219 21.954 80.228 15.5971C70.3341 9.2401 59.8846 18.8415 59.8846 18.8415Z" fill="url(#paint2_linear_118_1381)"/>
<path d="M84.0791 43.269C84.0791 43.269 86.2405 30.0826 93.3033 33.7926C100.366 37.5026 92.7857 47.7223 87.268 47.0832L84.0791 43.269Z" fill="#AF7E69"/>
<path d="M48.0878 258.885C48.1563 260.587 44.8913 274.065 43.1104 281.262C42.395 284.16 42.8897 287.182 44.5108 289.759L106.135 384.44C106.88 385.586 107.421 386.823 107.756 388.122C108.882 392.568 111.226 403.455 110.001 413.362L106.812 419.406L120.602 416.551L123.601 382.751L119.697 380.577C116.325 378.701 113.7 375.894 112.193 372.559C106.622 360.207 92.7854 328.749 89.216 313.422C85.1595 296.005 63.9713 281.853 63.9713 281.853L67.6929 273.815L48.0878 258.885Z" fill="#AF7E69"/>
<path d="M136.265 406.315C136.265 406.315 128.774 395.103 127.894 390.736C127.013 386.37 124.554 378.664 119.936 380.984C119.936 380.984 117.761 402.187 118.512 410.472C119.262 418.756 108.593 418.489 108.593 418.489C108.593 418.489 105.652 418.879 103.5 420.911C102.014 422.313 103.079 424.749 105.178 424.879C108.67 425.089 114.215 425.147 120.043 424.084C122.081 423.716 123.589 422.074 123.712 420.123L125.251 395.724L134.702 406.987L136.28 406.315H136.265Z" fill="#455A64"/>
<path d="M84.9007 273.961C84.9007 273.961 87.0773 358.651 87.3665 370.677C87.6633 382.703 85.2888 409.361 72.0767 417.329L77.8227 421.213C77.8227 421.213 85.0072 415.641 92.0243 404.914C99.9089 392.867 102.291 390.665 102.291 390.665L99.673 385.774C98.5238 383.634 98.1889 381.209 98.7217 378.875C101.576 366.265 111.097 324.316 113.692 315.284C116.759 304.62 116.98 290.385 106.31 278.463C95.6393 266.541 84.9007 273.961 84.9007 273.961Z" fill="#AF7E69"/>
<path d="M97.093 425.034C97.504 425.034 97.8541 424.77 97.9074 424.402C98.3488 421.581 100.175 410.257 101.675 407.325C103.387 403.969 108.996 389.838 101.675 388.643C101.675 388.643 83.4699 412.918 79.9766 416.19C76.4833 419.462 72.0767 417.336 72.0767 417.336C72.0767 417.336 68.6747 418.253 66.1023 421.248C64.877 422.672 66.0186 424.763 68.005 424.784L80.2658 424.888C83.8276 424.916 87.0317 422.943 88.3484 419.928C90.5098 415.009 94.2162 407.79 98.5315 404.588L96.2863 424.214C96.233 424.652 96.606 425.034 97.093 425.041V425.034Z" fill="#455A64"/>
<path d="M69.6721 171.131C69.6721 171.131 72.4348 179.169 68.188 192.411L41.8627 276.337C41.4517 277.657 42.228 279.032 43.6436 279.498C51.5206 282.075 77.4046 289.37 112.749 287.147C114.529 287.036 116.021 285.883 116.409 284.299C118.738 274.732 126.684 242.086 128.32 235.374C134.553 209.814 140.588 185.505 109.971 168.838C95.8605 174.354 83.6225 174.347 69.6797 171.124L69.6721 171.131Z" fill="#B59354"/>
<path d="M101.431 95.1321C101.431 95.1321 106.729 164.267 57.7994 129.543C57.7994 129.543 50.5693 123.311 45.3559 122.554C42.5476 122.144 39.3739 121.873 37.0451 121.706C35.9796 121.63 35.4849 122.88 36.3601 123.443C38.0421 124.52 40.2416 125.68 42.1518 125.861C45.843 126.208 41.9083 128.682 45.9267 135.129C49.9452 141.583 55.6912 139.151 55.6912 139.151C55.6912 139.151 111.759 191.563 122.955 100.148C123.35 83.1407 105.427 84.0439 101.431 95.1252V95.1321Z" fill="#AF7E69"/>
<path d="M2.10416 102.99L18.7487 100.989C20.7351 100.69 22.7824 101.753 24.0077 103.712L34.9595 125.805C37.022 129.105 35.5531 133.489 32.2197 133.989L18.8553 135.553C17.5767 135.747 16.26 135.011 15.537 133.691L0.726626 106.72C-0.125771 105.164 0.589634 103.226 2.10416 102.997V102.99Z" fill="#263238"/>
<path d="M13.4591 132.794C13.4591 132.794 2.2638 117.927 3.56523 116.093C4.86666 114.259 14.6768 111.639 16.9829 111.021C19.2889 110.403 23.6194 123.888 13.4591 132.794Z" fill="#AF7E69"/>
<path d="M184.03 157.875C183.786 157.875 183.558 157.743 183.459 157.521C183.337 157.236 183.49 156.909 183.802 156.791C194.54 152.894 203.262 144.626 207.121 134.677C210.979 124.729 209.906 113.3 204.252 104.094C196.291 91.1374 181.031 83.8981 166.274 76.9019L164.493 76.0613C148.541 68.4746 132.985 59.4429 127.277 44.8184C127.163 44.5266 127.33 44.207 127.65 44.1028C127.97 43.9986 128.32 44.1514 128.434 44.4432C133.997 58.6995 149.325 67.5923 165.057 75.0678L166.837 75.9085C181.754 82.988 197.181 90.3037 205.317 103.553C211.139 113.036 212.243 124.812 208.27 135.059C204.29 145.307 195.317 153.825 184.251 157.84C184.175 157.868 184.098 157.882 184.022 157.882L184.03 157.875Z" fill="#263238"/>
<path d="M167.545 152.713C167.271 152.713 167.02 152.546 166.952 152.289C166.868 151.99 167.066 151.685 167.393 151.608C179.806 148.739 190.172 141.653 195.119 132.656C200.698 122.505 198.932 109.861 190.91 102.594C190.667 102.378 190.667 102.024 190.91 101.802C191.146 101.579 191.534 101.579 191.778 101.802C200.165 109.402 202.029 122.596 196.215 133.163C191.108 142.452 180.446 149.753 167.69 152.699C167.637 152.713 167.591 152.72 167.538 152.72L167.545 152.713Z" fill="#263238"/>
</g>
<defs>
<linearGradient id="paint0_linear_118_1381" x1="79.3755" y1="-10.0807" x2="175.414" y2="169.858" gradientUnits="userSpaceOnUse">
<stop stop-color="#B59354"/>
<stop offset="1" stop-color="#263238"/>
</linearGradient>
<linearGradient id="paint1_linear_118_1381" x1="117.972" y1="-68.1574" x2="168.388" y2="-419.431" gradientUnits="userSpaceOnUse">
<stop stop-color="#455A64"/>
<stop offset="1" stop-color="#4C246D"/>
</linearGradient>
<linearGradient id="paint2_linear_118_1381" x1="87.5929" y1="45.3706" x2="55.1307" y2="25.7325" gradientUnits="userSpaceOnUse">
<stop stop-color="#9A8150"/>
<stop offset="1" stop-color="#AB8C53"/>
</linearGradient>
<clipPath id="clip0_118_1381">
<rect width="228.222" height="425.034" fill="white" transform="translate(0.361328)"/>
</clipPath>
</defs>
</svg>
