<svg width="217" height="500" viewBox="0 0 217 500" fill="none" xmlns="http://www.w3.org/2000/svg">
<path d="M0 230.771L20 232L25.5269 287.52C25.5269 287.52 30.0832 292.027 29.8427 302.229C29.6021 312.439 28.5196 313.458 26.9914 312.12C25.4632 310.783 25.8452 305.42 23.7369 303.701C21.6285 301.982 20.2913 308.661 22.0176 312.595C23.7369 316.528 30.2459 335.475 23.935 329.546C17.6169 323.61 12.0701 313.663 11.688 304.663C11.306 295.664 13.7964 288.971 13.7964 288.971L0 230.771Z" fill="#AF7E69"/>
<path d="M74.657 496.772C83.6384 496.536 88.2835 495.547 90.6832 494.636C90.6832 495.468 90.6832 496.32 90.6551 497.198C90.627 498.135 89.8763 498.888 88.9641 498.881L39.6577 498.587C38.086 498.58 37.1668 496.87 37.8474 495.527C44.3098 496.025 60.778 497.139 74.657 496.778V496.772Z" fill="#263238"/>
<path d="M88.5325 478.47C87.3934 474.43 83.6648 471.685 79.4622 471.819L75.3092 471.954C53.2137 477.253 42.028 489.472 37.6415 495.606C37.5566 495.726 37.507 495.853 37.4434 495.981C43.9595 496.518 60.5647 497.721 74.5592 497.332C83.6153 497.077 88.299 496.009 90.7187 495.026C90.6762 487.958 89.6362 482.404 88.5325 478.477V478.47Z" fill="#455A64"/>
<path d="M68.7295 457.69L72.2034 474.409C72.4581 475.633 73.399 476.553 74.5381 476.659C75.9319 476.793 77.92 476.864 79.9152 476.574C81.7052 476.312 82.9575 474.494 82.6391 472.534L80.2265 457.69H68.7295Z" fill="#AF7E69"/>
<path d="M140.676 497.537C131.62 497.282 126.936 496.214 124.517 495.231C124.517 496.129 124.517 497.049 124.545 497.997C124.573 499.009 125.33 499.822 126.25 499.815L175.967 499.497C177.551 499.49 178.478 497.643 177.792 496.193C171.276 496.731 154.671 497.933 140.676 497.544V497.537Z" fill="#263238"/>
<path d="M177.792 496.186C177.735 496.059 177.679 495.931 177.594 495.811C173.2 489.677 162.022 477.458 139.926 472.159L129.328 471.827C129.328 471.827 124.609 480.034 124.517 495.231C126.936 496.221 131.62 497.29 140.676 497.537C154.671 497.926 171.276 496.724 177.792 496.186Z" fill="url(#paint0_linear_140_1620)"/>
<path d="M127.361 455.759C127.481 456.551 128.932 468.558 129.498 473.213C129.632 474.317 130.431 475.173 131.443 475.293C133.247 475.505 136.169 475.703 138.723 475.18C140.103 474.897 141.101 473.574 141.101 472.031V453.183L127.361 455.752V455.759Z" fill="#AF7E69"/>
<path d="M118.856 236.594C118.856 236.594 144.426 333.763 143.959 456.042C143.952 458.27 142.388 460.195 140.202 460.655C136.99 461.334 132.264 462.133 128.351 462.027C126.264 461.971 124.516 460.421 124.163 458.362C120.576 437.335 100.001 318.898 88.285 299.668C88.285 299.668 80.5731 405.158 83.0353 459.883C83.0989 461.242 82.1013 462.423 80.75 462.579C78.6982 462.82 75.4154 462.997 71.234 462.551C69.6492 462.381 68.3686 461.185 68.1422 459.608C65.5881 441.814 50.8932 335.9 51.5158 259.609C51.5512 255.308 62.8925 236.601 62.8925 236.601H118.856V236.594Z" fill="#B59354"/>
<path d="M73.6681 55.5362L70.3428 89.4895C70.3428 89.4895 89.4455 95.2415 103.334 85.4425L93.5702 54.5811L73.6681 55.5362Z" fill="#B88671"/>
<path d="M109.454 22.8844C109.454 22.8844 114.555 46.31 112.935 57.7504C111.314 69.1908 112.298 77.0229 98.7561 76.6974C85.2215 76.3791 75.4933 67.6696 71.7576 55.2104C71.7576 55.2104 65.8499 35.9804 69.3662 29.2873C72.8755 22.5943 109.447 22.8844 109.447 22.8844H109.454Z" fill="#AF7E69"/>
<path d="M77.8424 47.9939L78.656 47.8171C79.689 47.5907 80.3186 46.5365 80.0215 45.5247C78.8824 41.591 76.9084 32.7118 81.9388 31.7283C88.4125 30.4619 113.097 30.3345 119.89 22.9411C126.413 15.8306 124.135 4.5176 118.17 0.251329C117.774 -0.0316739 117.222 0.0178564 116.911 0.39991L116.161 1.32674C115.644 1.95643 114.626 1.64512 114.555 0.831491C114.491 0.0532322 113.536 -0.286374 112.998 0.286707C110.925 2.49413 105.867 5.73452 94.0938 5.57179C77.3613 5.34539 65.3902 9.75316 62.9069 20.854C62.7512 21.5615 61.9164 21.802 61.3857 21.3138C60.3386 20.3516 58.4991 19.63 55.5205 21.2643C50.3486 24.1085 50.2425 34.1409 58.3788 44.0248C58.768 44.4918 58.6194 45.2134 58.0534 45.4398C56.0653 46.2393 52.8956 48.4467 58.9802 53.4347C65.27 58.5995 70.5904 59.3353 72.6776 59.399C73.2011 59.4131 73.6185 58.9957 73.6115 58.4721L73.3992 48.2416C73.3851 47.6614 73.9157 47.2228 74.4817 47.336L77.8494 48.001L77.8424 47.9939Z" fill="#263238"/>
<path d="M77.8421 50.1449C77.8421 50.1449 77.0002 35.6622 70.0595 38.2941C63.1189 40.9261 70.194 54.3616 75.0616 55.8615L77.8492 50.1378L77.8421 50.1449Z" fill="#AF7E69"/>
<path d="M67.0176 86.2133C67.0176 86.2133 21.6876 79.6689 34.0053 137.041C46.3159 194.42 54.3603 224.552 56.6738 248.317C64.7889 253.532 116.791 248.275 118.8 247.292C120.809 246.308 121.566 248.516 121.439 238.271C121.312 228.033 138.214 145.212 139.58 140.324C140.945 135.435 181.209 195.785 175.415 160.035C169.62 124.284 140.124 78.6713 107.926 81.4872C75.727 84.296 67.0176 86.2063 67.0176 86.2063V86.2133Z" fill="#455A64"/>
<path d="M139.58 140.324C139.58 140.324 174.255 181.373 178.889 181.373C183.523 181.373 187.393 165.971 187.393 165.971L163.486 125.041L139.58 140.316V140.324Z" fill="#455A64"/>
<path d="M52.9524 87.5717C51.4242 86.178 0.0874023 95.1562 0.0874023 194.257V230.771L20.5002 232L43.6628 148.467C43.6628 148.467 66.862 100.279 52.9453 87.5717H52.9524Z" fill="#455A64"/>
<path d="M216.931 84.5861C216.358 74.6244 211.802 68.6955 207.174 65.2004C206.325 64.5566 205.469 63.9835 204.62 63.4953C200.588 61.1464 197.128 60.5238 197.128 60.5238C194.291 56.1797 194.05 86.0507 194.05 86.0507L194.064 86.0861C193.788 86.4327 193.527 86.8006 193.279 87.1615C193.208 86.5035 193.208 85.7677 193.293 84.9894C193.887 79.4779 189.678 78.4379 189.678 79.7397C189.678 81.0415 187.937 89.3901 187.385 92.7296C186.862 95.8567 195.989 107.524 197.107 108.931C197.107 108.946 197.121 108.967 197.121 108.967C197.17 109.179 197.206 109.299 197.206 109.299C197.206 109.299 175.16 180.078 177.509 181.387C178.711 182.067 194.376 194.427 200.687 187.769C206.439 181.663 210.804 119.806 211.519 109.08C211.519 109.08 215.587 106.3 216.698 94.7177C216.712 94.6823 216.712 94.6681 216.712 94.6328C216.853 94.0597 216.917 93.5927 216.917 93.2248C216.917 93.0338 216.903 92.8215 216.867 92.6164C217.023 90.2887 217.044 87.6072 216.917 84.6003L216.931 84.5861Z" fill="#AF7E69"/>
<defs>
<linearGradient id="paint0_linear_140_1620" x1="128.422" y1="492.288" x2="239.38" y2="455.702" gradientUnits="userSpaceOnUse">
<stop stop-color="#455A64"/>
<stop offset="1" stop-color="#1A0F91"/>
</linearGradient>
</defs>
</svg>
