<svg width="51" height="38" viewBox="0 0 51 38" fill="none" xmlns="http://www.w3.org/2000/svg">
<path d="M12.7174 35.0586H3.10739V25.6777L12.7174 17.929V35.0586ZM13.0874 15.0673L1.48472 24.4251C1.2502 24.6136 1.11328 24.8982 1.11328 25.2005V36.0549C1.11328 36.6053 1.55928 37.0513 2.10966 37.0513H13.7137C14.2641 37.0513 14.7101 36.6053 14.7101 36.0549V15.8441C14.7101 15.4604 14.4905 15.1106 14.1435 14.9453C13.7978 14.7785 13.387 14.826 13.0874 15.0673Z" fill="#263238"/>
<path d="M29.5607 35.0584H19.9521V12.2786L21.7903 11.129L29.5607 19.2384V35.0584ZM21.4203 9.01023L18.4271 10.881C18.1356 11.0626 17.958 11.3839 17.958 11.7269V36.0548C17.958 36.6052 18.404 37.0511 18.9557 37.0511H30.5585C31.1088 37.0511 31.5548 36.6052 31.5548 36.0548V18.8371C31.5548 18.5796 31.4545 18.3342 31.2769 18.1485L22.6688 9.16479C22.3434 8.82588 21.8215 8.75944 21.4203 9.01023Z" fill="#263238"/>
<path d="M42.496 35.655H36.2873V19.5936L42.496 13.3835V35.655ZM42.7007 11.2037L35.0943 18.81C34.9629 18.9415 34.8896 19.1205 34.8896 19.3035V36.3531C34.8896 36.7381 35.2014 37.0512 35.5891 37.0512H43.1942C43.5805 37.0512 43.8937 36.7381 43.8937 36.3531V11.6985C43.8937 11.4152 43.7229 11.1617 43.4612 11.0532C43.2009 10.9448 42.9 11.0044 42.7007 11.2037Z" fill="#263238"/>
<path d="M49.2416 0.223044C43.7554 4.256 38.2693 8.28899 32.7831 12.3233C29.5906 8.98036 26.3981 5.63741 23.2057 2.29718C22.8722 1.94472 22.2012 1.82268 21.785 2.11142C14.6978 7.04316 7.61066 11.9735 0.522147 16.9039C-0.708753 17.7593 0.462501 19.7927 1.7056 18.9265C8.54468 14.171 15.3824 9.41412 22.2215 4.65726C25.4194 8.00563 28.6159 11.354 31.8138 14.701C32.1419 15.044 32.8278 15.1822 33.2345 14.8854C38.9647 10.6721 44.6935 6.45888 50.4237 2.24563C51.6275 1.36177 50.459 -0.673018 49.2416 0.223044Z" fill="#263238"/>
</svg>
