<svg width="45" height="57" viewBox="0 0 45 57" fill="none" xmlns="http://www.w3.org/2000/svg">
<g clip-path="url(#clip0_140_1665)">
<path d="M21.0348 56.9997C20.945 55.8877 20.8552 54.7756 20.7722 53.6636C20.6686 52.2299 20.4198 50.8311 20.0052 49.4603C19.867 49.0127 19.5146 48.7959 19.1069 48.649C17.2134 47.9776 15.4098 47.1174 13.8205 45.8515C13.4611 45.5647 13.1225 45.236 12.7908 44.9213C12.6941 44.8304 12.5144 44.7394 12.6043 44.5856C12.6872 44.4387 12.8599 44.5576 12.9912 44.5646C13.5579 44.5996 14.09 44.5086 14.6221 44.11C14.1798 43.9771 13.8066 43.8792 13.4404 43.7533C11.934 43.2428 10.8421 42.1727 9.83321 40.9977C7.09673 37.8155 5.23094 34.1088 3.52409 30.2971C3.12329 29.3949 2.76396 28.4787 2.3908 27.5625C2.35625 27.4786 2.2595 27.3807 2.33552 27.2898C2.43917 27.1779 2.54974 27.3037 2.63266 27.3457C3.01964 27.5345 3.39971 27.7514 3.78668 27.9542C3.91107 28.0241 4.05619 28.0801 4.17366 27.9542C4.29114 27.8213 4.17366 27.7234 4.09765 27.6185C1.95545 24.2614 0.677041 20.5896 0.193319 16.6241C-0.0761832 14.3791 -0.0830936 12.141 0.290064 9.90301C0.442091 9.00779 0.697772 8.14055 1.04329 7.30129C1.09166 7.18239 1.14003 7.02853 1.27824 7.03552C1.45791 7.03552 1.40262 7.23135 1.43027 7.33626C1.52701 7.67896 1.65831 8.00067 1.86562 8.29442C1.92781 8.38534 1.97618 8.51822 2.10748 8.49724C2.24568 8.47626 2.22495 8.32239 2.25259 8.21748C2.83306 6.3711 3.60702 4.62963 4.87161 3.14693C5.90124 1.93699 7.09673 0.922884 8.44424 0.0906138C8.52716 0.0416567 8.60318 -0.0562574 8.69992 0.027669C8.77594 0.0976077 8.69992 0.181534 8.67228 0.258467C7.96052 2.66436 7.90523 5.10521 8.2853 7.56705C8.38205 8.2035 8.47879 8.83994 8.69301 9.53932C9.21819 8.84693 9.4255 8.02865 10.0543 7.50411C10.082 7.53908 10.1096 7.56006 10.1096 7.58104C10.006 9.83307 10.5726 11.9802 11.084 14.1413C11.4295 15.589 11.8856 16.9948 12.4315 18.3796C12.4868 18.5194 12.5075 18.7363 12.6941 18.7153C12.8876 18.6943 12.7908 18.4845 12.8047 18.3586C12.8876 17.5753 13.2607 16.9318 13.7306 16.2325C13.8827 16.757 14.0001 17.2186 14.1453 17.6662C14.6773 19.3447 15.6448 20.7855 16.5708 22.2472C17.8423 24.2614 19.1414 26.2547 20.1503 28.4228C20.6548 29.5138 21.1247 30.6188 21.1178 31.8637C21.1178 31.9617 21.1178 32.0875 21.2352 32.1015C21.3389 32.1155 21.4011 31.9966 21.4426 31.9127C21.8019 31.2413 21.9539 30.5139 22.0299 29.7656C22.0368 29.6956 22.0299 29.6257 22.0299 29.5558C22.0299 29.4579 22.023 29.339 22.1405 29.311C22.2787 29.276 22.3271 29.3879 22.3754 29.4998C22.5966 30.0453 22.8453 30.5909 23.0457 31.1434C23.8681 33.3954 24.4624 35.7034 24.6973 38.0953C24.877 39.9207 24.8079 41.7391 24.4002 43.5365C24.2551 44.166 23.9441 44.7185 23.6677 45.285C23.6124 45.4039 23.4742 45.5507 23.6193 45.6626C23.7437 45.7605 23.8819 45.6277 23.9994 45.5577C24.1099 45.4948 24.1998 45.4039 24.3103 45.3479C24.4347 45.285 24.566 45.0891 24.7042 45.236C24.8148 45.3479 24.7526 45.5437 24.6835 45.6766C24.2343 46.5299 23.723 47.3412 22.9144 47.9007C22.6657 48.0685 22.4722 48.0126 22.4169 47.7118C21.8917 45.1731 20.7446 42.9001 19.5491 40.641C18.015 37.7386 16.2736 34.955 14.5668 32.1505C12.4384 28.6536 10.2893 25.1636 8.49952 21.4639C7.38696 19.1629 6.43334 16.792 5.95652 14.2602C5.70084 12.9034 5.69393 11.5326 5.74922 10.1548C5.74922 10.0149 5.74922 9.87503 5.74922 9.70718C5.535 9.76313 5.55573 9.95196 5.51426 10.0779C4.96144 12.0082 4.94071 13.9594 5.4037 15.9037C6.32968 19.8273 7.99507 23.4431 9.84703 26.989C11.7681 30.6678 13.9587 34.1787 16.0041 37.7806C17.4207 40.2774 18.9134 42.7322 20.1987 45.3059C21.8226 48.5441 22.2096 51.9151 21.56 55.4471C21.4633 55.9856 21.3873 56.5241 21.0279 56.9997H21.0348Z" fill="#AF935C"/>
<path d="M25.6444 42.0682C25.7274 41.208 25.7619 40.3407 25.7757 39.4735C25.8103 38.0817 25.7343 36.6969 25.4095 35.3401C25.2436 34.6407 25.4371 33.9763 25.6859 33.3259C27.683 28.2623 29.6939 23.2057 31.6702 18.1352C32.6239 15.6803 33.6535 13.2605 34.4966 10.7637C34.6071 10.4419 34.69 10.1202 34.7592 9.79151C34.9457 8.90329 34.5104 8.28084 33.6189 8.16894C32.8104 8.07102 32.0019 8.11998 31.1934 8.12697C30.8894 8.12697 30.765 8.07102 30.7719 7.72832C30.7926 6.86808 30.7719 6.86808 31.6426 6.86808C35.9339 6.86808 40.2252 6.86808 44.5165 6.86108C44.8689 6.86108 45.0072 6.92403 44.9933 7.32268C44.9588 8.12697 44.9864 8.12697 44.171 8.12697C43.8117 8.12697 43.4523 8.14795 43.093 8.12697C41.9804 8.05703 41.1166 8.5536 40.3634 9.32292C39.5826 10.1272 39.1265 11.1343 38.6842 12.1415C35.4986 19.45 32.3198 26.7586 29.1411 34.0672C28.0423 36.599 26.9367 39.1308 25.8379 41.6626C25.7757 41.8024 25.7066 41.9423 25.6375 42.0752L25.6444 42.0682Z" fill="black"/>
</g>
<defs>
<clipPath id="clip0_140_1665">
<rect width="45" height="57" fill="white"/>
</clipPath>
</defs>
</svg>
