<svg width="63" height="79" viewBox="0 0 63 79" fill="none" xmlns="http://www.w3.org/2000/svg">
<g clip-path="url(#clip0_163_372)">
<path d="M29.1538 78.9998C29.0293 77.4586 28.9048 75.9174 28.7898 74.3762C28.6462 72.389 28.3014 70.4504 27.7267 68.5505C27.5352 67.9301 27.0467 67.6297 26.4817 67.4261C23.8574 66.4955 21.3577 65.3033 19.1549 63.5488C18.6569 63.1514 18.1876 62.6958 17.7279 62.2596C17.5938 62.1336 17.3448 62.0076 17.4693 61.7943C17.5842 61.5908 17.8236 61.7556 18.0056 61.7652C18.791 61.8137 19.5284 61.6877 20.2659 61.1352C19.6529 60.951 19.1357 60.8153 18.6281 60.6408C16.5403 59.9332 15.027 58.4501 13.6287 56.8217C9.83603 52.4113 7.25012 47.2738 4.88449 41.991C4.329 40.7406 3.83097 39.4708 3.31378 38.201C3.2659 38.0846 3.13181 37.9489 3.23716 37.8229C3.38083 37.6678 3.53407 37.8423 3.649 37.9005C4.18533 38.1622 4.71209 38.4627 5.24843 38.7438C5.42083 38.8407 5.62195 38.9183 5.78477 38.7438C5.94759 38.5596 5.78477 38.4239 5.67942 38.2785C2.7104 33.6257 0.938575 28.5368 0.268153 23.0407C-0.105368 19.9292 -0.114946 16.8273 0.402237 13.7255C0.612941 12.4848 0.967307 11.2828 1.44618 10.1196C1.51322 9.95481 1.58026 9.74156 1.77181 9.75126C2.02083 9.75126 1.94421 10.0227 1.98252 10.1681C2.1166 10.643 2.29857 11.0889 2.5859 11.496C2.67209 11.6221 2.73914 11.8062 2.92111 11.7771C3.11266 11.7481 3.08393 11.5348 3.12224 11.3894C3.92674 8.8304 4.99942 6.41678 6.75209 4.36181C8.17913 2.68488 9.83603 1.27935 11.7036 0.125857C11.8186 0.0580046 11.9239 -0.0777009 12.058 0.0386181C12.1634 0.135551 12.058 0.25187 12.0197 0.358495C11.0332 3.69297 10.9566 7.07592 11.4834 10.4879C11.6174 11.37 11.7515 12.2521 12.0484 13.2214C12.7763 12.2618 13.0636 11.1277 13.9352 10.4007C13.9735 10.4492 14.0118 10.4782 14.0118 10.5073C13.8681 13.6286 14.6535 16.6044 15.3622 19.5996C15.8411 21.6061 16.4732 23.5544 17.2298 25.4737C17.3065 25.6676 17.3352 25.9681 17.5938 25.939C17.8619 25.9099 17.7279 25.6191 17.747 25.4446C17.8619 24.359 18.3791 23.4672 19.0304 22.4979C19.2411 23.2249 19.4039 23.8646 19.605 24.485C20.3425 26.8114 21.6834 28.8082 22.9667 30.8341C24.729 33.6257 26.5295 36.3883 27.9279 39.3932C28.627 40.9054 29.2783 42.4369 29.2687 44.1623C29.2687 44.298 29.2687 44.4725 29.4315 44.4919C29.5752 44.5113 29.6614 44.3465 29.7188 44.2302C30.2169 43.2996 30.4276 42.2915 30.5329 41.2543C30.5425 41.1574 30.5329 41.0605 30.5329 40.9635C30.5329 40.8278 30.5233 40.663 30.6862 40.6243C30.8777 40.5758 30.9448 40.7309 31.0118 40.886C31.3183 41.6421 31.6631 42.3981 31.9408 43.1639C33.0805 46.2851 33.9042 49.4839 34.2298 52.799C34.4788 55.3289 34.3831 57.8492 33.818 60.3403C33.6169 61.2127 33.1859 61.9785 32.8028 62.7636C32.7262 62.9284 32.5346 63.132 32.7357 63.2871C32.9081 63.4228 33.0997 63.2386 33.2625 63.1417C33.4157 63.0544 33.5402 62.9284 33.6935 62.8509C33.8659 62.7636 34.0479 62.4922 34.2394 62.6958C34.3926 62.8509 34.3064 63.1223 34.2107 63.3065C33.5881 64.489 32.8794 65.6135 31.7588 66.3889C31.414 66.6216 31.1459 66.544 31.0693 66.1272C30.3414 62.6086 28.7515 59.4582 27.0946 56.3273C24.9684 52.3046 22.5549 48.4467 20.1893 44.5597C17.2394 39.7131 14.2608 34.8762 11.7803 29.7484C10.2383 26.5594 8.9166 23.2733 8.25575 19.7644C7.90139 17.8839 7.89181 15.984 7.96843 14.0744C7.96843 13.8806 7.96843 13.6867 7.96843 13.4541C7.67153 13.5316 7.70026 13.7933 7.6428 13.9678C6.8766 16.6432 6.84787 19.3476 7.48956 22.0423C8.77294 27.4802 11.0811 32.4916 13.6479 37.4061C16.3104 42.5048 19.3465 47.3708 22.1814 52.3628C24.1448 55.8233 26.2135 59.2256 27.9949 62.7927C30.2456 67.2807 30.7819 71.9528 29.8817 76.8479C29.7476 77.5943 29.6422 78.3407 29.1442 78.9998H29.1538Z" fill="#AF935C"/>
<path d="M35.5419 58.3049C35.6569 57.1126 35.7048 55.9106 35.7239 54.7087C35.7718 52.7797 35.6665 50.8604 35.2163 48.98C34.9865 48.0106 35.2546 47.0898 35.5994 46.1883C38.3673 39.1704 41.1543 32.1622 43.8935 25.1346C45.2152 21.7322 46.6422 18.3784 47.8107 14.9179C47.9639 14.472 48.0788 14.0261 48.1746 13.5705C48.4332 12.3395 47.8298 11.4768 46.5943 11.3217C45.4738 11.186 44.3532 11.2538 43.2326 11.2635C42.8112 11.2635 42.6388 11.186 42.6484 10.711C42.6772 9.51873 42.6484 9.51873 43.8552 9.51873C49.8028 9.51873 55.7504 9.51873 61.698 9.50903C62.1864 9.50903 62.378 9.59627 62.3588 10.1488C62.3109 11.2635 62.3493 11.2635 61.2191 11.2635C60.7211 11.2635 60.2231 11.2926 59.725 11.2635C58.1831 11.1666 56.9859 11.8548 55.9419 12.9211C54.8597 14.0358 54.2276 15.4316 53.6146 16.8274C49.1994 26.9569 44.7938 37.0863 40.3881 47.2158C38.8653 50.7247 37.3329 54.2337 35.8101 57.7427C35.7239 57.9365 35.6281 58.1304 35.5324 58.3146L35.5419 58.3049Z" fill="white"/>
</g>
<defs>
<clipPath id="clip0_163_372">
<rect width="62.3684" height="79" fill="white"/>
</clipPath>
</defs>
</svg>
